<svg width="22" height="22" viewBox="0 0 22 22" fill="none" xmlns="http://www.w3.org/2000/svg">
<path d="M20.1666 9.16699C20.1835 9.83346 20.1666 10.1334 20.1666 11.0003C20.1666 14.4573 20.1666 16.1858 19.0926 17.2597C18.0187 18.3337 16.2902 18.3337 12.8333 18.3337H9.16658C5.70962 18.3337 3.98114 18.3337 2.90719 17.2597C1.83325 16.1858 1.83325 14.4573 1.83325 11.0003C1.83325 7.54336 1.83325 5.81488 2.90719 4.74093C3.98114 3.66699 5.70962 3.66699 9.16658 3.66699H11.9166" stroke="#6C7489" stroke-width="1.4" stroke-linecap="round"/>
<path d="M5.5 7.33301L7.47899 8.98216C9.16257 10.3851 10.0044 11.0866 11 11.0866C11.9956 11.0866 12.8374 10.3852 14.521 8.98216" stroke="#6C7489" stroke-width="1.4" stroke-linecap="round"/>
<ellipse cx="17.4167" cy="4.58301" rx="2.75" ry="2.75" stroke="#6C7489" stroke-width="1.4"/>
</svg>
